<?xml version="1.0" encoding="UTF-8"?>
<svg xmlns="http://www.w3.org/2000/svg" xmlns:xlink="http://www.w3.org/1999/xlink" xmlns:svgjs="http://svgjs.com/svgjs" version="1.1" width="512" height="512" x="0" y="0" viewBox="0 0 509.867 509.867" style="enable-background:new 0 0 512 512" xml:space="preserve" class="">
  <rect width="509.867" height="509.867" rx="20" ry="20" fill="#ffffff" shape="rounded" transform="matrix(0.82,0,0,0.82,45.8880276489258,45.8880276489258)"/>
  <g transform="matrix(0.6,0,0,0.6,101.9734008789062,101.97335205078116)">
<g xmlns="http://www.w3.org/2000/svg">
	<g>
		<path d="M256,0C149.333,0,64,85.333,64,192c0,98.133,157.867,290.133,174.933,311.467c8.533,8.533,23.467,8.533,32,0    C288,482.133,445.867,290.133,445.867,192C445.867,87.467,360.533,2.133,256,0z M256,298.667    c-59.733,0-106.667-46.933-106.667-106.667S196.267,85.333,256,85.333S362.667,132.267,362.667,192S315.733,298.667,256,298.667z" fill="#0aaebe" data-original="#000000" style="" class=""/>
	</g>
</g>
<g xmlns="http://www.w3.org/2000/svg">
	<g>
		<polygon points="277.333,170.667 277.333,128 234.667,128 234.667,170.667 192,170.667 192,213.333 234.667,213.333 234.667,256     277.333,256 277.333,213.333 320,213.333 320,170.667   " fill="#0aaebe" data-original="#000000" style="" class=""/>
	</g>
</g>















</g>
</svg>
